<svg version="1.1" id="Layer_1" xmlns="http://www.w3.org/2000/svg" xmlns:xlink="http://www.w3.org/1999/xlink" x="0px" y="0px"
	 width="100%" viewBox="0 0 600 150" enable-background="new 0 0 600 150" xml:space="preserve">
<path fill="#673AB7" opacity="1.000000" stroke="none" 
	d="
M601.000000,29.000000 
	C601.000000,69.645477 601.000000,110.290955 601.000000,150.937317 
	C401.000000,150.938202 200.999985,150.938202 1.000000,150.938202 
	C1.000000,111.896721 1.000000,72.917015 1.388793,33.422192 
	C22.035049,39.427334 42.267670,46.026062 62.555691,52.449829 
	C94.553986,62.581413 127.005058,70.332222 160.829803,70.674080 
	C197.080383,71.040466 232.523911,65.311592 267.186737,55.279610 
	C301.684540,45.295395 335.809082,34.028572 370.173065,23.573065 
	C404.554810,13.112151 439.517395,6.385191 475.705872,6.720141 
	C518.772156,7.118749 560.235718,15.952842 601.000000,29.000000 
z"/>
<path fill="#FEFEFF" opacity="1.000000" stroke="none" 
	d="
M601.000000,28.531342 
	C560.235718,15.952842 518.772156,7.118749 475.705872,6.720141 
	C439.517395,6.385191 404.554810,13.112151 370.173065,23.573065 
	C335.809082,34.028572 301.684540,45.295395 267.186737,55.279610 
	C232.523911,65.311592 197.080383,71.040466 160.829803,70.674080 
	C127.005058,70.332222 94.553986,62.581413 62.555691,52.449829 
	C42.267670,46.026062 22.035049,39.427334 1.388793,32.953533 
	C1.000000,22.340408 1.000000,11.680816 1.000000,1.040256 
	C201.000000,1.040256 401.000000,1.040256 601.000000,1.040256 
	C601.000000,10.074570 601.000000,19.068626 601.000000,28.531342 
z"/>
</svg>