<svg version="1.1" id="Layer_1" xmlns="http://www.w3.org/2000/svg" xmlns:xlink="http://www.w3.org/1999/xlink" x="0px" y="0px"
	 width="100%" viewBox="0 0 800 100" enable-background="new 0 0 800 100" xml:space="preserve">
<path fill="#673AB7" opacity="1.000000" stroke="none" 
	d="
M800.673950,2.753348 
	C801.000000,34.486160 800.956055,65.972488 801.074341,97.458199 
	C801.085083,100.319954 800.646545,101.090935 797.544556,101.089790 
	C533.160828,100.992607 268.777008,100.991104 4.393258,101.102158 
	C1.114088,101.103539 0.933795,100.085487 0.941675,97.396126 
	C1.032961,66.243401 1.000000,35.090309 1.000000,3.468657 
	C6.430876,1.564764 11.349576,3.595487 16.244061,5.398207 
	C30.628130,10.696100 44.858654,16.420584 59.507412,20.979315 
	C72.907616,25.149492 86.476334,28.051781 100.623901,28.671633 
	C117.658836,29.417988 133.205917,24.580511 148.450607,17.954309 
	C157.311264,14.102970 166.097153,10.097412 175.106552,6.575294 
	C186.098633,2.278073 197.545166,2.370631 209.025650,2.148035 
	C225.889420,1.821061 240.481323,9.030484 255.182480,15.854540 
	C262.139465,19.083866 269.113953,22.252508 276.311676,24.902426 
	C297.665588,32.764076 318.488281,31.217199 338.816223,21.282528 
	C347.648010,16.966270 356.527618,12.741027 365.350616,8.417543 
	C378.603210,1.923420 392.581635,1.309219 406.866699,1.622665 
	C418.652344,1.881268 429.224579,5.752450 439.388947,11.355542 
	C445.076355,14.490713 451.018555,17.160738 456.803253,20.123762 
	C482.324188,33.196045 508.051025,33.968838 534.314026,22.139339 
	C549.822632,15.153901 565.700378,8.860829 582.673889,6.458542 
	C597.986450,4.291333 613.217834,4.946956 628.115723,9.841333 
	C638.729797,13.328328 649.286072,17.023497 659.608643,21.224113 
	C685.024780,31.566872 710.513489,31.392332 736.394287,23.400017 
	C752.021118,18.574244 767.133423,12.405126 782.381409,6.572228 
	C788.146484,4.366873 793.901245,1.827666 800.673950,2.753348 
z"/>
<path fill="#FEFEFF" opacity="1.000000" stroke="none" 
	d="
M801.000000,2.500000 
	C791.558289,5.137541 782.775940,9.164195 773.784241,12.573599 
	C755.439758,19.529325 737.288391,26.983112 717.757202,30.271311 
	C699.768921,33.299740 682.266602,31.765526 665.124268,25.761467 
	C656.181274,22.629225 647.183289,19.592674 638.444519,15.950521 
	C611.179199,4.586858 583.983521,5.281214 556.740356,15.801598 
	C548.055237,19.155476 539.350342,22.477510 530.790405,26.132305 
	C505.845581,36.782841 481.428192,34.709793 457.409912,23.282524 
	C448.401581,18.996618 439.565094,14.347430 430.676544,9.812370 
	C411.136444,-0.157267 391.349304,-0.307979 371.456665,8.526379 
	C362.645813,12.439308 353.844482,16.448994 345.366486,21.022188 
	C318.077057,35.742607 290.764130,35.854389 263.059021,22.259398 
	C253.811737,17.721743 244.310272,13.681887 234.817032,9.669968 
	C214.795242,1.208611 194.654770,1.414166 174.572357,9.480697 
	C166.704773,12.640875 158.756607,15.698389 151.188049,19.487566 
	C123.478111,33.360455 95.011879,34.065475 65.726387,25.498348 
	C44.622047,19.324520 24.465099,10.541874 3.669340,3.535375 
	C3.041429,3.323820 2.396695,3.162197 1.379902,2.988647 
	C1.411838,2.372586 0.026278,0.878461 2.000656,0.988193 
	C3.163730,1.052835 4.333333,1.000000 5.500000,1.000000 
	C269.166656,1.000000 532.833313,0.997577 796.500000,1.061723 
	C797.963379,1.062079 799.890686,-0.091487 801.000000,2.500000 
z"/>
</svg>